# xmcd
#
# Track frame offsets:
#	150
#	2205
#	14775
#	28787
#	36282
#	44542
#	58817
#	66277
#	81662
#	95435
#	107492
#	121257
#	130632
#	143960
#	151492
#	163912
#	172857
#	182797
#	196487
#	202895
#
# Disc length: 2738 seconds
#
# Revision: 1
# Processed by: cddbd v1.5.1PL0 Copyright (c) Steve Scherf et al.
# Submitted via: audiograbber 1.83.01
#
DISCID=1f0ab014
DTITLE=The Lilly Brothers and Don Stover - On The Radio 1952 - 1953
DYEAR=1900
DGENRE=Bluegrass
TTITLE0=Intro
TTITLE1=Why Don't You Tell Me So
TTITLE2=That Star Belongs to Me 
TTITLE3=Here Rattler Here
TTITLE4=Rawhide
TTITLE5=Girl with the Blue Velvet Band
TTITLE6=Did You Wander
TTITLE7=Don't Meke Me Go to Bed and I'll Be Good
TTITLE8=The Old Man's Story
TTITLE9=I'll Still Write Your Name in the Sand
TTITLE10=No Mother or Dad
TTITLE11=Cumberland Gap
TTITLE12=The Old Home Town
TTITLE13=Good Old Mountain Dew
TTITLE14=What is a Home Without Love
TTITLE15=We're Going to Have a Big Time Here Tonight
TTITLE16=When the Saints Go Marching In
TTITLE17=Sinner You Better Get Ready
TTITLE18=The Prisoner's Song
TTITLE19=Cumberland Gap - Outro
EXTD=
EXTT0=
EXTT1=
EXTT2=
EXTT3=
EXTT4=
EXTT5=
EXTT6=
EXTT7=
EXTT8=
EXTT9=
EXTT10=
EXTT11=
EXTT12=
EXTT13=
EXTT14=
EXTT15=
EXTT16=
EXTT17=
EXTT18=
EXTT19=
PLAYORDER=
